<svg width="144" height="75" viewBox="0 0 144 75" fill="none" xmlns="http://www.w3.org/2000/svg">
<path d="M141 37.0515L141.671 37.7931L142.491 37.0515L141.671 36.3099L141 37.0515ZM141 37.0515C141.671 36.3099 141.671 36.3096 141.67 36.3092L141.669 36.3078L141.663 36.3026L141.641 36.2827L141.555 36.2057C141.479 36.1381 141.368 36.0385 141.221 35.9088C140.928 35.6495 140.496 35.2703 139.937 34.7882C138.82 33.8242 137.196 32.4486 135.166 30.7987C131.107 27.4997 125.419 23.0994 118.904 18.6971C112.391 14.2968 105.034 9.88204 97.6398 6.56435C90.2583 3.25255 82.7651 0.999924 76 0.999924C66.4517 0.999924 57.2948 4.79856 50.5436 11.5597C43.7925 18.3208 40 27.4905 40 37.0515C40 46.6125 43.7925 55.7822 50.5436 62.5433C57.2948 69.3044 66.4517 73.103 76 73.103C82.7651 73.103 90.2583 70.8504 97.6398 67.5386C105.034 64.2209 112.391 59.8062 118.904 55.4058C125.419 51.0036 131.107 46.6033 135.166 43.3043C137.196 41.6543 138.82 40.2788 139.937 39.3147C140.496 38.8327 140.928 38.4534 141.221 38.1941C141.368 38.0645 141.479 37.9648 141.555 37.8973L141.641 37.8203L141.663 37.8004L141.669 37.7951L141.67 37.7937C141.671 37.7933 141.671 37.7931 141 37.0515ZM59.03 54.0486C54.5289 49.5409 52 43.4269 52 37.0515C52 30.676 54.5289 24.562 59.03 20.0544C63.5309 15.5467 69.6353 13.0146 76 13.0146H76.0364C78.4348 13.0146 82.0447 13.0145 89.1756 16.0637C96.2351 19.0825 106.741 25.0897 122.874 37.0515C106.741 49.0132 96.2351 55.0205 89.1756 58.0392C82.0447 61.0885 78.4348 61.0884 76.0364 61.0883H76C69.6353 61.0883 63.5309 58.5562 59.03 54.0486Z" fill="#A3BFF8" stroke="#526796" stroke-width="2"/>
<path d="M3 37.0516L2.32917 36.3099L1.50931 37.0516L2.32917 37.7932L3 37.0516ZM3 37.0516C2.32917 37.7932 2.32944 37.7934 2.32986 37.7938L2.33143 37.7952L2.33723 37.8004L2.35934 37.8204L2.44515 37.8973C2.52065 37.9649 2.63246 38.0646 2.77903 38.1942C3.07217 38.4535 3.50434 38.8328 4.06305 39.3148C5.1804 40.2789 6.80415 41.6544 8.83411 43.3044C12.893 46.6033 18.5812 51.0036 25.0964 55.4059C31.6087 59.8063 38.9655 64.221 46.3602 67.5387C53.7417 70.8505 61.2349 73.1031 68 73.1031C77.5483 73.1031 86.7052 69.3045 93.4564 62.5433C100.208 55.7822 104 46.6125 104 37.0516C104 27.4906 100.208 18.3209 93.4564 11.5598C86.7052 4.79864 77.5483 1 68 1C61.2349 1 53.7417 3.25263 46.3602 6.56443C38.9655 9.88212 31.6087 14.2968 25.0964 18.6972C18.5812 23.0995 12.893 27.4998 8.83411 30.7987C6.80415 32.4487 5.1804 33.8242 4.06305 34.7883C3.50434 35.2704 3.07217 35.6496 2.77903 35.9089C2.63246 36.0386 2.52065 36.1382 2.44515 36.2058L2.35934 36.2827L2.33723 36.3027L2.33143 36.3079L2.32986 36.3093C2.32944 36.3097 2.32917 36.3099 3 37.0516ZM84.97 20.0544C89.4711 24.5621 92 30.6761 92 37.0516C92 43.427 89.4711 49.541 84.97 54.0487C80.4691 58.5563 74.3647 61.0884 68 61.0884H67.9636C65.5652 61.0885 61.9553 61.0886 54.8244 58.0393C47.7649 55.0206 37.2593 49.0133 21.1255 37.0516C37.2593 25.0898 47.7649 19.0825 54.8244 16.0638C61.9553 13.0145 65.5652 13.0146 67.9636 13.0147H68C74.3647 13.0147 80.4691 15.5468 84.97 20.0544Z" fill="#9179D3" stroke="#526796" stroke-width="2"/>
<mask id="path-3-outside-1_1_56" maskUnits="userSpaceOnUse" x="39" y="35" width="105" height="40" fill="black">
<rect fill="white" x="39" y="35" width="105" height="40"/>
<path fill-rule="evenodd" clip-rule="evenodd" d="M41 37C41 37.0172 41 37.0343 41 37.0515C41 46.3477 44.6875 55.2632 51.2513 61.8367C57.815 68.4101 66.7174 72.103 76 72.103C102.25 72.103 141 37.0515 141 37.0515C141 37.0515 140.981 37.0341 140.943 37H124.481C124.504 37.0171 124.527 37.0343 124.55 37.0515C91 62.0883 81 62.0883 76 62.0883C69.3696 62.0883 63.0107 59.4505 58.3223 54.7552C53.6339 50.0599 51 43.6917 51 37.0515C51 37.0343 51 37.0172 51.0001 37H41Z"/>
</mask>
<path fill-rule="evenodd" clip-rule="evenodd" d="M41 37C41 37.0172 41 37.0343 41 37.0515C41 46.3477 44.6875 55.2632 51.2513 61.8367C57.815 68.4101 66.7174 72.103 76 72.103C102.25 72.103 141 37.0515 141 37.0515C141 37.0515 140.981 37.0341 140.943 37H124.481C124.504 37.0171 124.527 37.0343 124.55 37.0515C91 62.0883 81 62.0883 76 62.0883C69.3696 62.0883 63.0107 59.4505 58.3223 54.7552C53.6339 50.0599 51 43.6917 51 37.0515C51 37.0343 51 37.0172 51.0001 37H41Z" fill="#A3BFF8"/>
<path d="M41 37V35H39.003L39 36.9971L41 37ZM51.2513 61.8367L49.836 63.2498L49.836 63.2498L51.2513 61.8367ZM141 37.0515L142.342 38.5347L143.981 37.0514L142.342 35.5682L141 37.0515ZM140.943 37L142.279 35.5117L141.709 35H140.943V37ZM124.481 37V35H118.455L123.285 38.6031L124.481 37ZM124.55 37.0515L125.746 38.6544L127.894 37.0514L125.746 35.4486L124.55 37.0515ZM76 62.0883L76 64.0883H76V62.0883ZM58.3223 54.7552L56.9071 56.1684L56.9071 56.1684L58.3223 54.7552ZM51.0001 37L53 37.0041L53.0042 35H51.0001V37ZM43 37.0515C43 37.0353 43 37.0191 43 37.0029L39 36.9971C39 37.0152 39 37.0333 39 37.0515H43ZM52.6665 60.4235C46.4775 54.2253 43 45.8182 43 37.0515H39C39 46.8772 42.8975 56.3011 49.836 63.2498L52.6665 60.4235ZM76 70.103C67.2488 70.103 58.8554 66.6215 52.6665 60.4235L49.836 63.2498C56.7746 70.1987 66.186 74.103 76 74.103V70.103ZM141 37.0515C139.658 35.5683 139.658 35.5682 139.658 35.5682C139.658 35.5684 139.658 35.5686 139.658 35.569C139.657 35.5697 139.655 35.571 139.653 35.5729C139.649 35.5765 139.643 35.5823 139.634 35.5901C139.617 35.6057 139.59 35.6296 139.554 35.6616C139.483 35.7254 139.375 35.8213 139.233 35.9471C138.949 36.1987 138.526 36.5698 137.977 37.0433C136.879 37.9905 135.278 39.347 133.274 40.9763C129.262 44.2366 123.647 48.5803 117.224 52.9201C110.796 57.2637 103.595 61.5786 96.4118 64.8015C89.2022 68.0361 82.1572 70.103 76 70.103V74.103C82.9678 74.103 90.6103 71.7885 98.0492 68.451C105.514 65.1017 112.923 60.6537 119.463 56.2344C126.01 51.8113 131.722 47.3922 135.797 44.0803C137.835 42.4235 139.466 41.0415 140.59 40.0719C141.152 39.587 141.587 39.205 141.884 38.9431C142.032 38.8122 142.145 38.7113 142.222 38.6425C142.26 38.6081 142.289 38.5817 142.31 38.5637C142.32 38.5547 142.327 38.5477 142.333 38.5429C142.335 38.5404 142.337 38.5385 142.339 38.5372C142.34 38.5365 142.34 38.5359 142.341 38.5355C142.341 38.5351 142.342 38.5347 141 37.0515ZM139.607 38.4883C139.625 38.5045 139.638 38.5165 139.647 38.5243C139.651 38.5282 139.654 38.531 139.656 38.5327C139.657 38.5336 139.658 38.5342 139.658 38.5346C139.658 38.5347 139.658 38.5348 139.659 38.5349C139.659 38.5349 139.659 38.5349 139.659 38.5349C139.659 38.5348 139.658 38.5348 139.658 38.5348C139.658 38.5348 139.658 38.5348 139.658 38.5348C139.658 38.5348 139.658 38.5348 139.658 38.5348C139.658 38.5348 139.658 38.5348 139.658 38.5348C139.658 38.5348 139.658 38.5347 141 37.0515C142.342 35.5682 142.342 35.5682 142.342 35.5682C142.342 35.5682 142.342 35.5682 142.342 35.5682C142.342 35.5682 142.342 35.5682 142.342 35.5682C142.342 35.5681 142.342 35.5681 142.342 35.5681C142.341 35.5681 142.341 35.568 142.341 35.568C142.341 35.5679 142.341 35.5678 142.341 35.5677C142.341 35.5674 142.34 35.5671 142.34 35.5668C142.339 35.566 142.338 35.565 142.337 35.5637C142.334 35.5611 142.33 35.5575 142.324 35.5527C142.314 35.5433 142.299 35.5296 142.279 35.5117L139.607 38.4883ZM140.943 35H124.481V39H140.943V35ZM125.746 35.4486C125.723 35.4314 125.7 35.4141 125.677 35.3969L123.285 38.6031C123.308 38.6202 123.331 38.6372 123.354 38.6544L125.746 35.4486ZM76 64.0883C78.7034 64.0883 82.7329 64.057 90.3551 60.7976C97.8805 57.5797 108.912 51.2169 125.746 38.6544L123.354 35.4486C106.638 47.9229 95.8945 54.0785 88.7824 57.1198C81.7671 60.1196 78.2966 60.0883 76 60.0883V64.0883ZM56.9071 56.1684C61.9703 61.2391 68.8382 64.0883 76 64.0883L76 60.0883C69.901 60.0883 64.0511 57.6619 59.7376 53.342L56.9071 56.1684ZM49 37.0515C49 44.2211 51.8439 51.0977 56.9071 56.1684L59.7376 53.342C55.4239 49.022 53 43.1622 53 37.0515H49ZM49.0001 36.9959C49 37.0145 49 37.033 49 37.0515H53C53 37.0356 53 37.0199 53 37.0041L49.0001 36.9959ZM51.0001 35H41V39H51.0001V35Z" fill="#526796" mask="url(#path-3-outside-1_1_56)"/>
<path fill-rule="evenodd" clip-rule="evenodd" d="M41 37.0515C41 32.5363 41.8699 28.1108 43.5168 24H54.6654C52.2878 27.8982 51 32.4083 51 37.0515C51 40.1402 51.5699 43.17 52.6514 46H42.1597C41.3961 43.1041 41 40.0982 41 37.0515ZM130.161 46C136.771 40.8768 141 37.0515 141 37.0515C141 37.0515 134.357 31.0422 124.708 24H105.793C111.057 27.3359 117.245 31.6002 124.55 37.0515C119.951 40.4832 115.795 43.4446 112.034 46H130.161Z" fill="#A3BFF8"/>
</svg>
